# Alias OBJ Model File
# Exported from SketchUp, (c) 2000-2012 Trimble Navigation Limited
# File units = millimeters

mtllib 1mmbox.mtl

g Mesh1 Model

usemtl FrontColor
v 0 0 -0
vt 0 0
vn 0 -1 -0
v 0 0 -80
vt 0 3.14961
v 60 0 -80
vt -2.3622 3.14961
v 60 0 -0
vt -2.3622 0
f 1/1/1 2/2/1 3/3/1 4/4/1 

vt -3.14961 0
vn -1 0 -0
v 0 30 -0
vt 0 1.1811
v 0 30 -79
vt -3.11024 1.1811
v 0 30 -80
vt -3.14961 1.1811
f 2/5/2 1/1/2 5/6/2 6/7/2 7/8/2 

vn 0 0 1
vt 2.3622 0
v 60 30 -0
vt 2.3622 1.1811
v 59 30 -0
vt 2.32283 1.1811
f 1/1/3 4/9/3 8/10/3 9/11/3 5/6/3 

vn 1 0 -0
vt 3.14961 0
v 60 30 -80
vt 3.14961 1.1811
f 4/1/4 3/12/4 10/13/4 8/6/4 

vn 0 0 -1
vt -2.3622 1.1811
f 3/4/5 2/1/5 7/6/5 10/14/5 

vn 0 1 -0
vt 0 3.11024
v 1 30 -79
vt 0.0393701 3.11024
v 59 30 -79
vt 2.32283 3.11024
v 59 30 -1
vt 2.32283 0.0393701
vt 2.32283 0
vt 2.3622 3.14961
f 7/2/6 6/15/6 11/16/6 12/17/6 13/18/6 9/19/6 8/9/6 10/20/6 

v 1 30 -1
vt 0.0393701 0.0393701
f 13/18/6 14/21/6 11/16/6 6/15/6 5/1/6 9/19/6 

v 20.0777 30 -13.817
vt 0.790462 0.543977
f 15/22/6 14/21/6 13/18/6

v 13.6392 30 -17.2773
vt 0.536975 0.680207
f 16/23/6 14/21/6 15/22/6

v 8.31557 30 -22.286
vt 0.327385 0.877402
f 17/24/6 14/21/6 16/23/6

v 4.46973 30 -28.5019
vt 0.175974 1.12212
f 18/25/6 14/21/6 17/24/6

v 2.36374 30 -35.5015
vt 0.0930605 1.39769
f 19/26/6 14/21/6 18/25/6

f 14/21/6 19/26/6 11/16/6

v 2.14111 30 -42.8075
vt 0.0842956 1.68534
f 11/16/6 19/26/6 20/27/6

v 2.22666 30 -40
vt 0.0876637 1.5748
f 20/27/6 19/26/6 21/28/6

vt 1.5714 1.1811
vn 0.999536 0 -0.0304574
vt 1.39421 1.1811
vn 0.987009 0 -0.160662
v 2.36374 29 -35.5015
vt 1.39421 1.14173
v 2.22666 29 -40
vt 1.5714 1.14173
f 21/29/7 19/30/8 22/31/8 23/32/7 

vt 1.31161 1.1811
vt 1.02384 1.1811
vn 0.911795 0 -0.410645
v 4.46973 29 -28.5019
vt 1.02384 1.14173
vt 1.31161 1.14173
f 19/33/8 18/34/9 24/35/9 22/36/8 

vt 0.861661 1.1811
vt 0.573886 1.1811
vn 0.774444 0 -0.632642
v 8.31557 29 -22.286
vt 0.573886 1.14173
vt 0.861661 1.14173
f 18/37/9 17/38/10 25/39/10 24/40/9 

vt 0.362794 1.1811
vt 0.0750193 1.1811
vn 0.584316 0 -0.811527
v 13.6392 29 -17.2773
vt 0.0750193 1.14173
vt 0.362794 1.14173
f 17/41/10 16/42/11 26/43/11 25/44/10 

vt -0.150992 1.1811
vt -0.438766 1.1811
vn 0.354367 0 -0.935106
v 20.0777 29 -13.817
vt -0.438766 1.14173
vt -0.150992 1.14173
f 16/45/11 15/46/12 27/47/12 26/48/11 

vt -0.644682 1.1811
v 27.1925 30 -12.1411
vt -0.932456 1.1811
vn 0.100269 0 -0.99496
v 27.1925 29 -12.1411
vt -0.932456 1.14173
vt -0.644682 1.14173
f 15/49/12 28/50/13 29/51/13 27/52/12 

vt 1.07057 0.477996
f 15/22/6 13/18/6 28/53/6

v 34.4985 30 -12.3637
vt 1.35821 0.486761
f 28/53/6 13/18/6 30/54/6

v 41.4981 30 -14.4697
vt 1.63378 0.569674
f 30/54/6 13/18/6 31/55/6

v 47.714 30 -18.3156
vt 1.8785 0.721085
f 31/55/6 13/18/6 32/56/6

v 52.7227 30 -23.6392
vt 2.0757 0.930676
f 32/56/6 13/18/6 33/57/6

v 56.183 30 -30.0777
vt 2.21193 1.18416
f 33/57/6 13/18/6 34/58/6

v 57.8589 30 -37.1925
vt 2.27791 1.46427
f 34/58/6 13/18/6 35/59/6

f 12/17/6 35/59/6 13/18/6

v 57.7733 30 -40
vt 2.27454 1.5748
f 12/17/6 36/60/6 35/59/6

v 57.6363 30 -44.4985
vt 2.26914 1.75191
f 12/17/6 37/61/6 36/60/6

v 55.5303 30 -51.4981
vt 2.18623 2.02748
f 12/17/6 38/62/6 37/61/6

v 51.6844 30 -57.714
vt 2.03482 2.2722
f 12/17/6 39/63/6 38/62/6

v 46.3608 30 -62.7227
vt 1.82523 2.4694
f 12/17/6 40/64/6 39/63/6

v 39.9223 30 -66.183
vt 1.57174 2.60563
f 12/17/6 41/65/6 40/64/6

v 32.8075 30 -67.8589
vt 1.29163 2.67161
f 12/17/6 42/66/6 41/65/6

v 25.5015 30 -67.6363
vt 1.00399 2.66285
f 12/17/6 43/67/6 42/66/6

v 18.5019 30 -65.5303
vt 0.728423 2.57993
f 12/17/6 44/68/6 43/67/6

f 11/16/6 44/68/6 12/17/6

v 12.286 30 -61.6844
vt 0.483701 2.42852
f 44/68/6 11/16/6 45/69/6

v 7.27726 30 -56.3608
vt 0.286506 2.21893
f 45/69/6 11/16/6 46/70/6

v 3.81702 30 -49.9223
vt 0.150276 1.96544
f 46/70/6 11/16/6 47/71/6

f 47/71/6 11/16/6 20/27/6

vt 1.94754 1.1811
vn 0.935106 0 0.354367
vt 1.65977 1.1811
vn 0.99496 0 0.100269
v 2.14111 29 -42.8075
vt 1.65977 1.14173
v 3.81702 29 -49.9223
vt 1.94754 1.14173
f 47/72/14 20/73/15 48/74/15 49/75/14 

vt 1.68199 1.1811
vt 1.68199 1.14173
f 20/76/15 21/29/7 23/32/7 48/77/15 

f 23/28/6 49/71/6 48/27/6

f 49/71/6 23/28/6 22/26/6

f 49/71/6 22/26/6 24/25/6

v 5 29 -40
vt 0.19685 1.5748
f 49/71/6 24/25/6 50/78/6

v 5.85185 29 -33.5295
vt 0.230388 1.32006
f 24/25/6 51/79/6 50/78/6

f 51/79/6 24/25/6 25/24/6

v 8.34936 29 -27.5
vt 0.328715 1.08268
f 51/79/6 25/24/6 52/80/6

f 52/80/6 25/24/6 26/23/6

v 12.3223 29 -22.3223
vt 0.485131 0.878832
f 52/80/6 26/23/6 53/81/6

v 17.5 29 -18.3494
vt 0.688976 0.722416
f 53/81/6 26/23/6 54/82/6

f 54/82/6 26/23/6 27/22/6

v 23.5295 29 -15.8519
vt 0.926359 0.624089
f 54/82/6 27/22/6 55/83/6

f 55/83/6 27/22/6 29/53/6

v 30 29 -15
vt 1.1811 0.590551
f 55/83/6 29/53/6 56/84/6

v 34.4985 29 -12.3637
f 56/84/6 29/53/6 57/54/6

vt -1.08463 1.1811
vt -1.37241 1.1811
vn -0.160662 0 -0.987009
vt -1.37241 1.14173
vt -1.08463 1.14173
f 28/85/13 30/86/16 57/87/16 29/88/13 

vt -1.44086 1.1811
vt -1.72863 1.1811
vn -0.410645 0 -0.911795
v 41.4981 29 -14.4697
vt -1.72863 1.14173
vt -1.44086 1.14173
f 30/89/16 31/90/17 58/91/17 57/92/16 

vt -1.68909 1.1811
vt -1.97687 1.1811
vn -0.632642 0 -0.774444
v 47.714 29 -18.3156
vt -1.97687 1.14173
vt -1.68909 1.14173
f 31/93/17 32/94/18 59/95/18 58/96/17 

vt -1.81241 1.1811
vt -2.10018 1.1811
vn -0.811527 0 -0.584316
v 52.7227 29 -23.6392
vt -2.10018 1.14173
vt -1.81241 1.14173
f 32/97/18 33/98/19 60/99/19 59/100/18 

vt -1.80241 1.1811
vt -2.09018 1.1811
vn -0.935106 0 -0.354367
v 56.183 29 -30.0777
vt -2.09018 1.14173
vt -1.80241 1.14173
f 33/101/19 34/102/20 61/103/20 60/104/19 

vt -1.65977 1.1811
vt -1.94754 1.1811
vn -0.99496 0 -0.100269
v 57.8589 29 -37.1925
vt -1.94754 1.14173
vt -1.65977 1.14173
f 34/105/20 35/106/21 62/107/21 61/108/20 

vt -1.39421 1.1811
vt -1.5048 1.1811
vn -0.999536 0 0.0304574
v 57.7733 29 -40
vt -1.5048 1.14173
vt -1.39421 1.14173
f 35/109/21 36/110/22 63/111/22 62/112/21 

vt -1.68199 1.1811
vn -0.987009 0 0.160662
v 57.6363 29 -44.4985
vt -1.68199 1.14173
f 36/110/22 37/113/23 64/114/23 63/111/22 

vt -1.02384 1.1811
vt -1.31161 1.1811
vn -0.911795 0 0.410645
v 55.5303 29 -51.4981
vt -1.31161 1.14173
vt -1.02384 1.14173
f 37/115/23 38/116/24 65/117/24 64/118/23 

vt -0.573886 1.1811
vt -0.861661 1.1811
vn -0.774444 0 0.632642
v 51.6844 29 -57.714
vt -0.861661 1.14173
vt -0.573886 1.14173
f 38/119/24 39/120/25 66/121/25 65/122/24 

vt -0.0750193 1.1811
vt -0.362794 1.1811
vn -0.584316 0 0.811527
v 46.3608 29 -62.7227
vt -0.362794 1.14173
vt -0.0750193 1.14173
f 39/123/25 40/124/26 67/125/26 66/126/25 

vt 0.438766 1.1811
vt 0.150992 1.1811
vn -0.354367 0 0.935106
v 39.9223 29 -66.183
vt 0.150992 1.14173
vt 0.438766 1.14173
f 40/127/26 41/128/27 68/129/27 67/130/26 

vt 0.932456 1.1811
vt 0.644682 1.1811
vn -0.100269 0 0.99496
v 32.8075 29 -67.8589
vt 0.644682 1.14173
vt 0.932456 1.14173
f 41/131/27 42/132/28 69/133/28 68/134/27 

vt 1.37241 1.1811
vt 1.08463 1.1811
vn 0.160662 0 0.987009
v 25.5015 29 -67.6363
vt 1.08463 1.14173
vt 1.37241 1.14173
f 42/135/28 43/136/29 70/137/29 69/138/28 

vt 1.72863 1.1811
vt 1.44086 1.1811
vn 0.410645 0 0.911795
v 18.5019 29 -65.5303
vt 1.44086 1.14173
vt 1.72863 1.14173
f 43/139/29 44/140/30 71/141/30 70/142/29 

vt 1.97687 1.1811
vt 1.68909 1.1811
vn 0.632642 0 0.774444
v 12.286 29 -61.6844
vt 1.68909 1.14173
vt 1.97687 1.14173
f 44/143/30 45/144/31 72/145/31 71/146/30 

vt 2.10018 1.1811
vt 1.81241 1.1811
vn 0.811527 0 0.584316
v 7.27726 29 -56.3608
vt 1.81241 1.14173
vt 2.10018 1.14173
f 45/147/31 46/148/32 73/149/32 72/150/31 

vt 2.09018 1.1811
vt 1.80241 1.1811
vt 1.80241 1.14173
vt 2.09018 1.14173
f 46/151/32 47/152/14 49/153/14 73/154/32 

v 5.85185 29 -46.4705
vt 0.230388 1.82955
f 49/71/6 74/155/6 73/70/6

f 49/71/6 50/78/6 74/155/6

v 5.85185 28 -46.4705
vt 1.84397 1.10236
vn 0.965926 0 0.258819
vt 1.84397 1.14173
vt 1.58702 1.14173
vn 1 0 -4.75916e-16
v 5 28 -40
vt 1.58702 1.10236
f 75/156/33 74/157/33 50/158/34 76/159/34 

v 8.34936 28 -52.5
vt 2.03539 1.10236
vn 0.866025 0 0.5
v 8.34936 29 -52.5
vt 2.03539 1.14173
vt 1.77845 1.14173
vt 1.77845 1.10236
f 77/160/35 78/161/35 74/162/33 75/163/33 

v 12.3223 28 -57.6777
vt 2.09686 1.10236
vn 0.707107 0 0.707107
v 12.3223 29 -57.6777
vt 2.09686 1.14173
vt 1.83991 1.14173
vt 1.83991 1.10236
f 79/164/36 80/165/36 78/166/35 77/167/35 

v 17.5 28 -61.6506
vt 2.02418 1.10236
vn 0.5 0 0.866025
v 17.5 29 -61.6506
vt 2.02418 1.14173
vt 1.76724 1.14173
vt 1.76724 1.10236
f 81/168/37 82/169/37 80/170/36 79/171/36 

v 23.5295 28 -64.1481
vt 1.82232 1.10236
vn 0.258819 0 0.965926
v 23.5295 29 -64.1481
vt 1.82232 1.14173
vt 1.56538 1.14173
vt 1.56538 1.10236
f 83/172/38 84/173/38 82/174/37 81/175/37 

v 30 28 -65
vt 1.50502 1.10236
vn 6.57884e-16 0 1
v 30 29 -65
vt 1.50502 1.14173
vt 1.24808 1.14173
vt 1.24808 1.10236
f 85/176/39 86/177/39 84/178/38 83/179/38 

v 36.4705 28 -64.1481
vt 1.09392 1.10236
vn -0.258819 0 0.965926
v 36.4705 29 -64.1481
vt 1.09392 1.14173
vt 0.836974 1.14173
vt 0.836974 1.10236
f 87/180/40 88/181/40 86/182/39 85/183/39 

v 42.5 28 -61.6506
vt 0.617016 1.10236
vn -0.5 0 0.866025
v 42.5 29 -61.6506
vt 0.617016 1.14173
vt 0.360075 1.14173
vt 0.360075 1.10236
f 89/184/41 90/185/41 88/186/40 87/187/40 

v 47.6777 28 -57.6777
vt 0.106823 1.10236
vn -0.707107 0 0.707107
v 47.6777 29 -57.6777
vt 0.106823 1.14173
vt -0.150119 1.14173
vt -0.150119 1.10236
f 91/188/42 92/189/42 90/190/41 89/191/41 

v 51.6506 28 -52.5
vt -0.401895 1.10236
vn -0.866025 0 0.5
v 51.6506 29 -52.5
vt -0.401895 1.14173
vt -0.658836 1.14173
vt -0.658836 1.10236
f 93/192/43 94/193/43 92/194/42 91/195/42 

v 54.1481 28 -46.4705
vt -0.874469 1.10236
vn -0.965926 0 0.258819
v 54.1481 29 -46.4705
vt -0.874469 1.14173
vt -1.13141 1.14173
vt -1.13141 1.10236
f 95/196/44 96/197/44 94/198/43 93/199/43 

v 55 28 -40
vt -1.2787 1.10236
vn -1 0 -1.1198e-16
v 55 29 -40
vt -1.2787 1.14173
vt -1.53564 1.14173
vt -1.53564 1.10236
f 97/200/45 98/201/45 96/202/44 95/203/44 

v 54.1481 28 -33.5295
vt -1.58702 1.10236
vn -0.965926 0 -0.258819
v 54.1481 29 -33.5295
vt -1.58702 1.14173
vt -1.84397 1.14173
vt -1.84397 1.10236
f 99/204/46 100/205/46 98/206/45 97/207/45 

v 51.6506 28 -27.5
vt -1.77845 1.10236
vn -0.866025 0 -0.5
v 51.6506 29 -27.5
vt -1.77845 1.14173
vt -2.03539 1.14173
vt -2.03539 1.10236
f 101/208/47 102/209/47 100/210/46 99/211/46 

v 47.6777 28 -22.3223
vt -1.83991 1.10236
vn -0.707107 0 -0.707107
v 47.6777 29 -22.3223
vt -1.83991 1.14173
vt -2.09686 1.14173
vt -2.09686 1.10236
f 103/212/48 104/213/48 102/214/47 101/215/47 

v 42.5 28 -18.3494
vt -1.76724 1.10236
vn -0.5 0 -0.866025
v 42.5 29 -18.3494
vt -1.76724 1.14173
vt -2.02418 1.14173
vt -2.02418 1.10236
f 105/216/49 106/217/49 104/218/48 103/219/48 

v 36.4705 28 -15.8519
vt -1.56538 1.10236
vn -0.258819 0 -0.965926
v 36.4705 29 -15.8519
vt -1.56538 1.14173
vt -1.82232 1.14173
vt -1.82232 1.10236
f 107/220/50 108/221/50 106/222/49 105/223/49 

v 30 28 -15
vt -1.24808 1.10236
vn -3.77934e-16 0 -1
vt -1.24808 1.14173
vt -1.50502 1.14173
vt -1.50502 1.10236
f 109/224/51 56/225/51 108/226/50 107/227/50 

v 23.5295 28 -15.8519
vt -0.836974 1.10236
vn 0.258819 0 -0.965926
vt -0.836974 1.14173
vt -1.09392 1.14173
vt -1.09392 1.10236
f 110/228/52 55/229/52 56/230/51 109/231/51 

v 17.5 28 -18.3494
vt -0.360075 1.10236
vn 0.5 0 -0.866025
vt -0.360075 1.14173
vt -0.617016 1.14173
vt -0.617016 1.10236
f 111/232/53 54/233/53 55/234/52 110/235/52 

v 12.3223 28 -22.3223
vt 0.150119 1.10236
vn 0.707107 0 -0.707107
vt 0.150119 1.14173
vt -0.106823 1.14173
vt -0.106823 1.10236
f 112/236/54 53/237/54 54/238/53 111/239/53 

v 8.34936 28 -27.5
vt 0.658836 1.10236
vn 0.866025 0 -0.5
vt 0.658836 1.14173
vt 0.401895 1.14173
vt 0.401895 1.10236
f 113/240/55 52/241/55 53/242/54 112/243/54 

v 5.85185 28 -33.5295
vt 1.13141 1.10236
vn 0.965926 0 -0.258819
vt 1.13141 1.14173
vt 0.874469 1.14173
vt 0.874469 1.10236
f 114/244/56 51/245/56 52/246/55 113/247/55 

vt 1.53564 1.10236
vt 1.53564 1.14173
vt 1.2787 1.14173
vt 1.2787 1.10236
f 76/248/34 50/249/34 51/250/56 114/251/56 

vt -0.230388 1.32006
v 1 28 -1
vt -0.0393701 0.0393701
vt -0.19685 1.5748
f 114/252/1 115/253/1 76/254/1

vt -0.328715 1.08268
f 113/255/1 115/253/1 114/252/1

vt -0.485131 0.878832
f 112/256/1 115/253/1 113/255/1

vt -0.688976 0.722416
f 111/257/1 115/253/1 112/256/1

v 59 28 -1
vt -2.32283 0.0393701
f 115/253/1 111/257/1 116/258/1

vt -0.926359 0.624089
f 116/258/1 111/257/1 110/259/1

vt -1.1811 0.590551
f 116/258/1 110/259/1 109/260/1

vt -1.43585 0.624089
f 116/258/1 109/260/1 107/261/1

vt -1.67323 0.722416
f 116/258/1 107/261/1 105/262/1

vt -1.87707 0.878832
f 116/258/1 105/262/1 103/263/1

vt -2.03349 1.08268
f 116/258/1 103/263/1 101/264/1

vt -2.13182 1.32006
f 116/258/1 101/264/1 99/265/1

vt -2.16535 1.5748
f 116/258/1 99/265/1 97/266/1

v 59 28 -79
vt -2.32283 3.11024
f 116/258/1 97/266/1 117/267/1

vt -2.13182 1.82955
f 95/268/1 117/267/1 97/266/1

vt -2.03349 2.06693
f 93/269/1 117/267/1 95/268/1

vt -1.87707 2.27077
f 91/270/1 117/267/1 93/269/1

vt -1.67323 2.42719
f 89/271/1 117/267/1 91/270/1

vt -1.43585 2.52552
f 87/272/1 117/267/1 89/271/1

vt -1.1811 2.55906
f 85/273/1 117/267/1 87/272/1

vt -0.926359 2.52552
f 83/274/1 117/267/1 85/273/1

vt -0.688976 2.42719
f 81/275/1 117/267/1 83/274/1

v 1 28 -79
vt -0.0393701 3.11024
f 81/275/1 118/276/1 117/267/1

vt -0.485131 2.27077
f 79/277/1 118/276/1 81/275/1

vt -0.328715 2.06693
f 77/278/1 118/276/1 79/277/1

vt -0.230388 1.82955
f 75/279/1 118/276/1 77/278/1

f 76/254/1 118/276/1 75/279/1

f 118/276/1 76/254/1 115/253/1

v 1 1 -79
vt 3.11024 0.0393701
vt 3.11024 1.10236
vt 0.0393701 1.10236
v 1 1 -1
f 119/280/4 118/281/4 115/282/4 120/21/4 

v 59 1 -79
vt 2.32283 1.10236
f 121/18/3 117/283/3 118/282/3 119/21/3 

vt -0.0393701 1.10236
vn -1 8.35546e-16 -0
vt -3.11024 1.10236
vt -3.11024 0.0393701
v 59 1 -1
f 116/284/57 117/285/57 121/286/57 122/253/57 

f 121/17/6 119/16/6 120/21/6 122/18/6 

vt -2.32283 1.10236
f 120/253/5 115/284/5 116/287/5 122/258/5 

vt 3.11024 1.1811
vt 0.0393701 1.1811
f 11/288/4 14/289/4 115/282/4 118/281/4 

vt 1.43585 0.624089
f 56/84/6 57/54/6 108/290/6

f 108/290/6 57/54/6 58/55/6

vt 1.67323 0.722416
f 108/290/6 58/55/6 106/291/6

f 106/291/6 58/55/6 59/56/6

vt 1.87707 0.878832
f 106/291/6 59/56/6 104/292/6

vt 2.03349 1.08268
f 104/292/6 59/56/6 102/293/6

f 102/293/6 59/56/6 60/57/6

vt 2.13182 1.32006
f 102/293/6 60/57/6 100/294/6

f 100/294/6 60/57/6 61/58/6

vt 2.16535 1.5748
f 100/294/6 61/58/6 98/295/6

f 98/295/6 61/58/6 65/62/6

f 65/62/6 61/58/6 64/61/6

f 64/61/6 61/58/6 62/59/6

f 64/61/6 62/59/6 63/60/6

vt 2.13182 1.82955
f 65/62/6 96/296/6 98/295/6

f 66/63/6 96/296/6 65/62/6

vt 2.03349 2.06693
f 66/63/6 94/297/6 96/296/6

vt 1.87707 2.27077
f 66/63/6 92/298/6 94/297/6

f 67/64/6 92/298/6 66/63/6

vt 1.67323 2.42719
f 67/64/6 90/299/6 92/298/6

f 68/65/6 90/299/6 67/64/6

vt 1.43585 2.52552
f 68/65/6 88/300/6 90/299/6

f 69/66/6 88/300/6 68/65/6

vt 1.1811 2.55906
f 69/66/6 86/301/6 88/300/6

f 70/67/6 86/301/6 69/66/6

vt 0.926359 2.52552
f 70/67/6 84/302/6 86/301/6

f 71/68/6 84/302/6 70/67/6

vt 0.688976 2.42719
f 71/68/6 82/303/6 84/302/6

vt 0.485131 2.27077
f 71/68/6 80/304/6 82/303/6

f 72/69/6 80/304/6 71/68/6

vt 0.328715 2.06693
f 72/69/6 78/305/6 80/304/6

f 73/70/6 78/305/6 72/69/6

f 73/70/6 74/155/6 78/305/6

